#!OML:ASF F:\VICON\USERDATA\INSTALL\rory3\rory3.ASF
:FULLY-SPECIFIED
:DEGREES
64
root -0.20966752182269555 17.477956058456247 30.64216388640471 0.17644848783364103 6.424971947747073 -0.38591818874649064
lfemur -23.492496372371836 -0.8324765967802416 -25.388016794925022
ltibia 39.45955358559861
lfoot -12.309196808749254 -11.192660238338718
ltoes 3.285104832932256
rfemur -5.395484834974063 -2.4733924359794695 24.277625147453403
rtibia 102.3925875840826
rfoot 19.13266016859601 -9.771997018671467
rtoes 8.667546858273095
lowerback 15.519845447484064 1.908069784824845 0.4299775449566503
upperback -0.06383758441640153 2.589955111908469 -0.6744594377215496
thorax -8.568518498884709 1.2195121766955626 -1.3073791943005668
lowerneck -19.063537351724733 -6.34283404581733 -2.3586761582011158
upperneck 15.63811185610268 -8.915837630985873 4.716345325626317
head 8.393867974733382 -3.9186283525590073 0.8949250724626612
lclavicle -4.254709773227634e-16 -3.954139897262674e-16
lhumerus -63.52567758390591 -2.8559729737258284 96.8753537262159
lradius 115.96368463958262
lwrist 38.11404108688983
lhand -23.364386227167135 4.851300526260456
lfingers 7.125020000000058
lthumb 3.0910063552666243 34.75644224960939
rclavicle -4.254709773227634e-16 -3.954139897262674e-16
rhumerus -40.663469525572566 14.157278381402033 -101.17241433164473
rradius 105.18815507338873
rwrist -17.468509307200616
rhand -21.1953383502792 -8.95666132176176
rfingers 7.125020000000058
rthumb 5.183300398477428 12.57538174507237
65
root -0.22837133001141435 17.255296714937867 30.943140572209 0.2783778280468021 6.248363226679816 0.8802926937426214
lfemur -20.805167811270053 -1.2374084953231081 -26.966756746984462
ltibia 43.364904809681256
lfoot -17.83737955115207 -7.330349545226062
ltoes 3.6093829376635567
rfemur -11.922654469184131 -4.34912860225757 21.177862356234087
rtibia 110.54679598984282
rfoot 17.941472644284342 -8.715436227028768
rtoes 10.395989263302354
lowerback 16.247996105126497 1.8225828708576612 -0.9391716657534219
upperback 0.10329965332791424 2.2179192616514793 -1.0485344555306184
thorax -8.803067599970806 1.0858829059498398 -0.818787502547852
lowerneck -19.43388176158612 -6.220228028170283 -2.2852605198509375
upperneck 15.716398492536984 -8.775213113005343 4.790486467408805
head 8.485217610532876 -3.8324657484832745 0.9179621859809711
lclavicle -3.4781108937293913e-16 -3.352817404719681e-16
lhumerus -58.271152610287245 -4.979585973409306 97.44246330538519
lradius 114.1129946271727
lwrist 39.069827165707835
lhand -23.55856218732874 5.413622864427612
lfingers 7.125020000000059
lthumb 2.9035727039451134 35.32457362360782
rclavicle -3.4781108937293913e-16 -3.352817404719681e-16
rhumerus -42.30609041008021 12.719332870065674 -101.52847633713853
rradius 102.95102724575648
rwrist -17.996578169488394
rhand -21.275479173707446 -8.9895611725677
rfingers 7.125020000000059
rthumb 5.105768959951908 12.262857935790846
66
root -0.2507448103207493 17.082280793200436 31.27987173472296 0.5096632376618032 5.804531362632119 1.8348639595482994
lfemur -18.067950151105943 -1.6960363658532607 -28.335374954296732
ltibia 45.56364152956409
lfoot -22.53479925853148 -3.2358758161499006
ltoes 1.6517561017263906
rfemur -19.19537241513455 -5.858133904144529 18.611459256560565
rtibia 116.54841107368964
rfoot 16.07061993629844 -7.6121495879154395
rtoes 11.669684184438168
lowerback 16.74197393273414 1.7003721437490351 -2.101644344113099
upperback 0.16418138824563605 1.8295596531569502 -1.361268961244788
thorax -9.061659830393998 0.9385849227311516 -0.43748029984149117
lowerneck -19.814286439837165 -6.075802349265505 -2.220517696725383
upperneck 15.764913366652877 -8.600017562993914 4.774309214333968
head 8.561408910793952 -3.7331859963951866 0.9180376258136169
lclavicle -6.305636421626885e-16 -5.542178747551262e-16
lhumerus -53.14403008383539 -7.209153757761427 97.67473003370283
lradius 111.64373229495851
lwrist 39.80586774329676
lhand -23.661393905317425 5.511613853268632
lfingers 7.125020000000058
lthumb 2.8042965263301127 35.4249453882772
rclavicle -6.305636421626885e-16 -5.542178747551262e-16
rhumerus -44.34004839342211 11.114769330844847 -101.97266746641625
rradius 100.5825037170359
rwrist -19.103181470522664
rhand -21.361526193476553 -9.188527462555623
rfingers 7.125020000000058
rthumb 5.022874570415575 11.732430451940663
67
root -0.26135150645569116 16.973676978904308 32.07972026517707 0.8099397907053858 5.300858725270791 2.3816466198206316
lfemur -15.2027452692302 -2.1491190403424527 -29.190289159341443
ltibia 46.63139566376681
lfoot -25.84805789773785 0.280700734797958
ltoes -1.5457874960612674
rfemur -26.31806662042273 -7.104602525826316 17.00571119466322
rtibia 120.45634144554165
rfoot 13.867683933005607 -6.676994950629651
rtoes 11.969855707314707
lowerback 17.03217927387942 1.5006334195294535 -2.866919386442288
upperback 0.14434678552958474 1.4115843769115808 -1.5130481403889544
thorax -9.28736632482016 0.7666733268253689 -0.10515577388189468
lowerneck -20.096382780519413 -5.875140553044556 -2.1563598951129626
upperneck 15.799908565214244 -8.33719915625373 4.675008192375188
head 8.606322343526974 -3.6004807132979098 0.9019009833312742
lclavicle -9.271546224581999e-16 -7.838691386978652e-16
lhumerus -48.51339934540101 -9.109294932058894 97.67317567572303
lradius 109.54545289570493
lwrist 40.35647625275137
lhand -23.63117911651485 5.323591371140351
lfingers 7.125020000000057
lthumb 2.833470017442182 35.23781570343003
rclavicle -9.271546224581999e-16 -7.838691386978652e-16
rhumerus -46.41584974086922 9.876502815802773 -102.31804305465974
rradius 98.97354975394688
rwrist -20.499762037163208
rhand -21.38649482365515 -9.4808278984959
rfingers 7.125020000000057
rthumb 4.999182973053421 11.151964316261717
68
root -0.25835948499604305 16.93575267420306 33.09755772822819 1.145330030207882 4.855444911262289 2.5134455730417913
lfemur -12.239037338515047 -2.6199707470511857 -29.5127442435874
ltibia 46.45064704247314
lfoot -27.35561392038224 2.5058739383353146
ltoes -5.257990896112914
rfemur -32.734920748322196 -8.190130013456379 16.45249124590441
rtibia 121.96377722334432
rfoot 11.64179537980105 -6.0014645780032225
rtoes 11.249447097264795
lowerback 17.11225734013523 1.1847062256466723 -3.2343696780663205
upperback 0.05697904916933261 0.9198491543569504 -1.4756477605617666
thorax -9.460556813715208 0.5497142094281688 0.21653876878654887
lowerneck -20.271483605136094 -5.60329375861185 -2.0941219094535013
upperneck 15.771845815865111 -7.964911809031541 4.495853084558025
head 8.601268774569503 -3.4243482877662452 0.8737071885829446
lclavicle -1.2087891611248464e-15 -1.0019395606097565e-15
lhumerus -44.617479791948824 -10.450100664569531 97.42345511163526
lradius 108.20817615284987
lwrist 40.77367783532996
lhand -23.547914393995484 4.800064443371145
lfingers 7.125020000000056
lthumb 2.913862867673492 34.71525456189371
rclavicle -1.2087891611248464e-15 -1.0019395606097565e-15
rhumerus -48.56907489919463 9.189987880870568 -102.56148772814194
rradius 98.31192190805949
rwrist -22.108150834774932
rhand -21.27596038071317 -9.863581964536035
rfingers 7.125020000000056
rthumb 5.10629881320393 10.680470900173026
69
root -0.24299408712037623 16.978419333086133 34.152944034904536 1.5444382980309133 4.495198143101799 2.378726587760602
lfemur -8.936263918166944 -3.0326072721093573 -29.444069197397287
ltibia 44.81515745244918
lfoot -26.81560711201025 3.2208612624046973
ltoes -9.443921390320408
rfemur -37.990739484767424 -8.973001387584622 16.78465183274679
rtibia 120.70032104863375
rfoot 9.61544322760834 -5.61975312871092
rtoes 9.839142285943867
lowerback 16.967580212965682 0.7652678501519169 -3.311985110773149
upperback -0.08929155199023506 0.35438197179955466 -1.273018714211067
thorax -9.55494564297776 0.2910642979971225 0.5824634693368851
lowerneck -20.35959741742081 -5.254131966518965 -2.0439172289411562
upperneck 15.730091834163458 -7.47191869359146 4.264954473676189
head 8.56954753388257 -3.1995948549539888 0.8448797740806748
lclavicle -1.3554523603962594e-15 -1.1155012487458078e-15
lhumerus -41.336136335195675 -11.105564395533644 96.92426641490174
lradius 107.87567780858316
lwrist 41.26730955031836
lhand -23.468934182221783 4.141211372644028
lfingers 7.125020000000056
lthumb 2.990107293959709 34.05676651632412
rclavicle -1.3554523603962594e-15 -1.1155012487458078e-15
rhumerus -50.79790957108418 9.020634381184019 -102.60196170283285
rradius 98.59156435621296
rwrist -23.72978181701559
rhand -21.01199857741355 -10.16281373758613
rfingers 7.125020000000056
rthumb 5.361450955304733 10.334071491565567
70
root -0.22462071447056065 17.100780656972958 35.23284338851427 2.026384487575163 4.063343996233913 2.1186676315702075
lfemur -5.114770454772952 -3.297483014320788 -29.180253990143854
ltibia 41.628227867203755
lfoot -24.06544178754261 2.4925613511739604
ltoes -14.311019544208232
rfemur -42.06457606923655 -9.214165231342472 17.727401898537945
rtibia 116.54043835249598
rfoot 7.88588068792299 -5.529045000161413
rtoes 8.012050416397594
lowerback 16.578765654651086 0.2837524897223047 -3.2461339968543506
upperback -0.29465311425360247 -0.2555674025369302 -0.9575102451272899
thorax -9.572375597636105 0.008676037488024313 1.0082958123712942
lowerneck -20.386458665046746 -4.82521956383464 -2.025712503049769
upperneck 15.760819332896096 -6.852775510148301 4.001222420311738
head 8.548119445977688 -2.9230326975025296 0.8253096190361393
lclavicle -1.3906502492207606e-15 -1.1427549897660745e-15
lhumerus -38.5627931882853 -11.07540101947524 96.14660506594652
lradius 108.48071239762629
lwrist 42.005463060201734
lhand -23.45090751664936 3.424621634884506
lfingers 7.125020000000056
lthumb 3.00747293271779 33.33844063680746
rclavicle -1.3906502492207606e-15 -1.1427549897660745e-15
rhumerus -53.227964686778364 9.238899688435952 -102.49777094576646
rradius 99.59057065293128
rwrist -25.24784196863172
rhand -20.64383037883978 -10.36713512237159
rfingers 7.125020000000056
rthumb 5.717157798883001 9.990783102542467
